<?xml version="1.0" standalone="no"?>
<!DOCTYPE svg PUBLIC "-//W3C//DTD SVG 20010904//EN"
 "http://www.w3.org/TR/2001/REC-SVG-20010904/DTD/svg10.dtd">
<svg version="1.0" xmlns="http://www.w3.org/2000/svg"
 width="500.000000pt" height="500.000000pt" viewBox="0 0 500.000000 500.000000"
 preserveAspectRatio="xMidYMid meet" id="pause">

<g transform="translate(0.000000,500.000000) scale(0.100000,-0.100000)"
fill="red" stroke="none">
<path d="M2398 3643 c7 -3 16 -2 19 1 4 3 -2 6 -13 5 -11 0 -14 -3 -6 -6z"/>
<path d="M2253 3623 c9 -2 23 -2 30 0 6 3 -1 5 -18 5 -16 0 -22 -2 -12 -5z"/>
<path d="M1913 3613 c9 -2 25 -2 35 0 9 3 1 5 -18 5 -19 0 -27 -2 -17 -5z"/>
<path d="M2153 3613 c9 -2 23 -2 30 0 6 3 -1 5 -18 5 -16 0 -22 -2 -12 -5z"/>
<path d="M2370 3560 c-161 -20 -337 -81 -462 -161 -41 -27 -60 -31 -150 -38
-91 -7 -95 -8 -36 -10 63 -1 66 -2 63 -23 -1 -13 -49 -70 -106 -128 l-103
-105 -156 -6 -155 -5 139 -2 c127 -2 138 -3 131 -19 -4 -10 -8 -27 -9 -38 -1
-11 -11 -36 -23 -55 -31 -50 -80 -175 -100 -259 l-18 -71 -70 -26 c-206 -78
-230 -90 -233 -120 l-2 -29 22 27 c21 24 204 108 237 108 18 0 43 -28 36 -40
-3 -5 -6 -68 -6 -140 1 -113 -1 -131 -17 -138 -9 -5 -68 -12 -130 -16 -128 -7
-118 -14 -132 85 -7 48 -8 21 -5 -116 3 -195 25 -319 82 -470 165 -441 535
-778 987 -899 141 -38 256 -49 428 -43 228 8 397 52 600 155 144 73 248 150
368 271 199 201 323 429 391 722 18 79 22 132 26 334 2 145 0 235 -6 226 -5
-7 -7 -35 -4 -61 2 -30 -1 -51 -8 -55 -8 -6 -8 -10 2 -16 7 -4 10 -11 7 -15
-7 -7 -68 10 -203 54 -71 24 -80 30 -81 52 -6 156 -73 388 -142 490 -9 14 -17
34 -18 45 -1 11 -5 28 -9 38 -7 16 4 17 131 19 l139 2 -155 5 -155 6 -45 50
c-68 74 -171 173 -207 198 -18 12 -33 28 -33 34 0 7 -9 18 -20 25 -28 18 -25
28 8 29 15 1 -4 5 -43 9 -43 5 -103 22 -155 43 -47 19 -119 42 -160 52 -41 9
-82 20 -90 24 -20 10 -270 11 -350 1z m361 -70 c155 -32 295 -93 424 -185 186
-132 345 -360 405 -577 24 -89 23 -119 -8 -168 -12 -19 -22 -40 -22 -45 0 -22
-73 -162 -114 -220 -59 -82 -147 -166 -193 -184 -21 -8 -43 -22 -50 -30 -6 -9
-15 -13 -19 -8 -4 4 -2 7 4 7 7 0 12 4 12 8 0 14 -59 9 -64 -5 -3 -7 -13 -13
-21 -13 -15 0 -15 1 -1 16 19 18 21 30 4 17 -7 -5 -26 -8 -43 -8 -16 1 -36 -2
-42 -8 -9 -7 -13 -4 -14 9 0 11 -3 13 -6 7 -3 -10 -10 -10 -25 -2 -15 8 -19 8
-14 0 4 -6 2 -11 -3 -11 -10 0 3 -19 44 -64 66 -73 71 -83 14 -28 l-65 62 -9
-32 c-14 -46 -46 -59 -134 -56 -66 3 -76 6 -97 31 -13 16 -24 41 -24 56 0 16
-7 34 -15 41 -10 9 -15 9 -15 1 0 -6 -9 -11 -20 -11 -11 0 -20 5 -20 10 0 7
-6 7 -17 2 -10 -6 -34 -9 -53 -8 -19 2 -41 -2 -49 -8 -11 -8 -13 -8 -8 1 4 6
3 14 -3 18 -5 3 -10 -3 -10 -14 0 -12 -5 -21 -11 -21 -6 0 -9 7 -5 15 4 12 0
12 -21 -2 -15 -10 -24 -12 -20 -5 5 7 3 12 -6 12 -16 0 -27 -20 -27 -48 -1 -9
-10 -28 -21 -42 -20 -23 -28 -25 -111 -25 -83 0 -90 2 -108 25 -11 14 -20 35
-20 48 0 16 -6 22 -22 22 -18 0 -20 2 -8 9 8 6 18 7 22 5 4 -3 5 2 1 11 -4 12
-8 13 -13 4 -5 -6 -17 -9 -29 -6 -12 3 -24 0 -28 -5 -4 -7 -1 -8 8 -3 8 5 11
4 6 0 -12 -13 -58 -12 -53 1 3 8 -18 11 -75 9 -43 -2 -82 1 -85 6 -10 16 -24
9 -17 -8 6 -17 61 -97 93 -136 8 -10 36 -34 63 -54 36 -27 47 -41 47 -63 0
-54 -54 -69 -112 -30 -18 13 -55 46 -81 74 -109 115 -135 189 -78 224 l30 18
-70 73 c-38 39 -85 97 -104 127 l-36 55 23 20 c22 19 22 19 2 10 -31 -15 -36
-2 -14 30 23 31 13 45 -25 35 -21 -5 -26 0 -49 49 -14 30 -31 58 -39 61 -12 4
-13 15 -2 72 78 403 423 745 837 831 129 27 301 27 429 1z m-1158 -1042 c-24
-23 -40 -20 -30 7 4 8 17 15 29 15 l22 0 -21 -22z m2188 -35 c27 -10 49 -23
49 -30 0 -7 -5 -13 -11 -13 -5 0 -7 -4 -4 -10 3 -5 11 -10 16 -10 6 0 8 4 4 9
-11 19 13 20 30 1 19 -21 45 -27 45 -9 0 5 -4 8 -9 5 -5 -3 -14 1 -21 9 -10
12 -10 15 3 15 9 0 19 -4 22 -10 3 -5 15 -10 26 -10 12 0 19 -7 19 -20 0 -10
7 -23 16 -28 12 -6 13 -14 5 -33 -5 -13 -17 -64 -27 -114 -9 -49 -23 -104 -30
-122 -15 -35 -15 -35 -174 -4 l-85 16 3 30 c2 17 9 35 15 40 7 6 13 26 13 45
0 170 5 230 17 228 6 -2 11 5 11 15 -2 21 6 21 67 0z m-2406 -177 c11 -2 24
-4 30 -5 5 0 5 -5 -2 -12 -12 -12 24 -159 63 -254 14 -33 26 -64 27 -70 1 -6
-27 -10 -68 -11 -38 0 -96 -3 -127 -8 l-57 -7 -21 48 c-12 26 -24 62 -27 78
-3 17 -9 35 -14 40 -4 6 -15 42 -25 80 -9 39 -21 76 -27 82 -12 17 29 33 108
43 55 7 84 6 140 -4z m175 -154 c53 -104 116 -192 195 -273 65 -67 233 -201
257 -205 7 -1 45 -17 83 -34 70 -32 215 -79 246 -80 9 0 22 -7 29 -15 14 -16
35 -21 25 -6 -3 6 34 8 97 4 165 -9 330 20 487 85 35 14 76 39 92 54 15 15 35
28 43 28 9 0 16 8 16 17 0 13 3 14 12 5 8 -8 17 -8 30 -1 16 9 17 13 6 26 -12
14 -11 15 9 5 19 -11 20 -10 15 11 -5 19 -3 20 10 10 20 -17 54 7 45 31 -6 14
-3 16 13 11 14 -5 20 -2 20 9 0 9 6 15 13 14 7 -2 11 5 9 16 -3 16 -1 18 11 8
19 -16 29 -4 16 21 -7 13 -8 17 -1 13 6 -3 19 7 28 24 10 16 22 30 26 30 15 0
8 -17 -17 -40 -14 -13 -23 -26 -20 -28 6 -7 50 50 50 65 0 6 10 22 23 36 12
13 19 27 15 30 -3 4 1 7 10 7 21 0 47 35 91 124 21 42 41 78 46 81 13 8 -7
-65 -38 -141 -120 -296 -361 -523 -660 -624 -282 -94 -612 -63 -867 83 -100
57 -98 55 -68 82 27 22 27 23 9 49 -20 32 -55 32 -71 1 -6 -11 -16 -21 -23
-23 -22 -4 -157 142 -221 239 -61 92 -113 205 -137 292 -17 65 -1 50 46 -41z
m975 -2 c3 -5 1 -10 -4 -10 -6 0 -11 5 -11 10 0 6 2 10 4 10 3 0 8 -4 11 -10z
m155 0 c0 -5 -2 -10 -4 -10 -3 0 -8 5 -11 10 -3 6 -1 10 4 10 6 0 11 -4 11
-10z m-683 -6 c-3 -3 -12 -4 -19 -1 -8 3 -5 6 6 6 11 1 17 -2 13 -5z m570 0
c-3 -3 -12 -4 -19 -1 -8 3 -5 6 6 6 11 1 17 -2 13 -5z m1192 -99 c107 -20 149
-35 128 -46 -8 -5 -35 -51 -61 -103 -26 -52 -54 -100 -62 -107 -12 -10 -39 -9
-135 3 -66 8 -122 18 -126 22 -3 3 1 14 10 23 26 30 106 195 100 210 -7 18 38
17 146 -2z m-2363 -125 c137 -10 154 -15 154 -40 0 -25 76 -126 165 -218 l74
-78 -147 -14 -146 -13 -40 44 c-33 37 -121 166 -195 286 -19 31 -18 43 3 43 6
0 65 -5 132 -10z m809 -85 c30 -29 31 -36 6 -66 -36 -45 -131 -17 -131 39 0
52 83 70 125 27z m1371 -90 c140 -19 164 -25 164 -36 0 -5 -6 -9 -14 -9 -7 0
-41 -34 -75 -75 -59 -70 -63 -74 -89 -64 -55 21 -192 91 -192 99 0 4 14 21 31
38 17 17 28 35 25 40 -6 10 8 20 30 21 6 1 60 -6 120 -14z m-1631 -85 c0 -20
-5 -25 -25 -25 -20 0 -26 6 -28 28 -3 26 -1 28 25 25 22 -2 28 -8 28 -28z
m1495 -90 c112 -56 143 -80 104 -80 -9 0 -40 -19 -68 -43 -28 -24 -65 -53 -82
-65 -31 -21 -32 -21 -70 -3 -22 10 -72 33 -111 51 -40 18 -73 36 -73 39 0 3
23 21 49 39 80 54 120 92 114 108 -9 24 12 16 137 -46z m-1555 -48 c17 -5 29
-12 27 -16 -5 -11 37 -40 113 -78 157 -79 326 -118 507 -118 100 0 107 -1 113
-21 5 -15 2 -25 -8 -31 -30 -16 -49 -41 -44 -58 3 -13 0 -16 -14 -13 -11 3
-25 0 -32 -6 -10 -8 -45 0 -138 30 -68 22 -144 45 -169 51 -138 31 -255 47
-337 48 -85 0 -97 2 -141 30 -27 17 -57 30 -66 30 -9 0 -15 6 -13 13 1 6 -6
11 -15 11 -10 -1 -18 5 -18 13 0 9 -6 13 -15 9 -9 -3 -15 0 -15 8 0 17 -39 52
-68 61 -39 12 -17 18 101 30 151 15 196 16 232 7z m1327 -152 c115 -55 137
-72 91 -68 -15 1 -47 -8 -70 -20 -23 -12 -49 -22 -56 -22 -17 0 -237 103 -237
111 0 3 24 15 54 28 40 16 53 27 49 37 -7 18 4 14 169 -66z m-263 -95 c83 -41
151 -77 151 -79 0 -3 -19 -5 -42 -5 -24 1 -59 -6 -80 -15 -20 -8 -50 -17 -67
-18 -17 -1 -31 -5 -31 -8 0 -3 -20 -6 -44 -6 -25 0 -42 4 -40 8 3 4 0 8 -5 8
-6 0 -11 -6 -11 -12 0 -8 -5 -6 -11 4 -10 18 -37 14 -51 -6 -4 -6 -8 4 -8 23
0 23 -8 41 -25 57 -14 13 -25 29 -25 35 0 7 11 2 24 -10 42 -40 87 -12 47 28
-22 22 -27 41 -11 41 6 0 10 -5 10 -10 0 -6 11 -15 25 -22 19 -8 28 -8 40 2
22 18 18 32 -6 20 -25 -14 -36 -6 -20 14 10 11 8 15 -6 19 -12 3 -9 5 8 6 15
0 94 -32 178 -74z m-274 36 c3 -5 1 -12 -5 -16 -5 -3 -10 1 -10 9 0 18 6 21
15 7z m40 -41 c21 -23 4 -27 -19 -4 -18 17 -20 24 -8 24 5 0 17 -9 27 -20z
m-606 -62 c161 -34 361 -100 361 -120 0 -6 -6 -8 -12 -5 -30 11 -201 58 -226
62 -15 2 -45 9 -67 15 -22 7 -90 24 -152 38 -114 26 -143 48 -50 36 29 -3 94
-15 146 -26z m556 -3 c0 -22 -31 -33 -47 -17 -17 17 -1 44 24 40 15 -2 23 -10
23 -23z m25 -35 c0 -5 -5 -10 -11 -10 -5 0 -7 5 -4 10 3 6 8 10 11 10 2 0 4
-4 4 -10z"/>
<path d="M3308 3443 c28 -2 76 -2 105 0 28 2 5 3 -53 3 -58 0 -81 -1 -52 -3z"/>
<path d="M1518 3353 c23 -2 61 -2 85 0 23 2 4 4 -43 4 -47 0 -66 -2 -42 -4z"/>
</g>
</svg>
