<svg xmlns="http://www.w3.org/2000/svg" viewBox="0 0 130 137"><g data-name="Layer 2"><g data-name="Layer 1"><path fill="#f93052" d="M117.82 64.75c0 29.41-23.41 53.25-52.3 53.25a51.43 51.43 0 0 1-33.59-12.45A53.26 53.26 0 0 1 14.2 75a54 54 0 0 1-1-10.28c0-29.41 23.41-53.25 52.3-53.25a51.56 51.56 0 0 1 28.8 8.8 52.74 52.74 0 0 1 11.43 10.43 53.6 53.6 0 0 1 12.07 34z"/><path fill="#f15a24" d="M115.09 47.7l-66.31 67.51a51.73 51.73 0 01-16.85-9.66c.21-.27.43-.51.67-.76l71.31-72.61a9.58 9.58 0 011.84-1.45 53.57 53.57 0 019.34 16.97zM94.32 20.3c-.18.21-.35.41-.55.61L22.46 93.52c-.2.2-.39.38-.6.56A53.36 53.36 0 0114.2 75l61.42-62.5a51.37 51.37 0 0118.7 7.8z"/><path fill="#ed1c24" d="M129.31 62.5a65 65 0 0 1-128.62 0A66.08 66.08 0 0 0 0 72a65 65 0 0 0 130 0 66.08 66.08 0 0 0-.69-9.5z"/><path fill="#f7931e" d="M65 20a45 45 0 1 1-45 45 45.05 45.05 0 0 1 45-45m0-20a65 65 0 1 0 65 65A65 65 0 0 0 65 0z"/><path fill="#f15a24" d="M65.5 111c-25.27 0-47.76-9.89-62.11-25.26A65 65 0 0 0 126 87.37C111.64 101.81 89.86 111 65.5 111z"/><path fill="#ed1c24" d="M99.73 57l-39.8-23a11.44 11.44 0 0 0-17.15 9.9v46a11.44 11.44 0 0 0 17.15 9.9l39.8-23a11.44 11.44 0 0 0 0-19.8z"/><path fill="#fff" d="M96.4 55L58.59 33.19a11.44 11.44 0 0 0-17.15 9.9v43.65a11.44 11.44 0 0 0 17.15 9.9L96.4 74.82a11.44 11.44 0 0 0 0-19.82z"/><circle cx="54" cy="42" r="6" style="mix-blend-mode:soft-light" fill="#fff"/><circle cx="63" cy="47" r="3" style="mix-blend-mode:soft-light" fill="#fff"/></g></g></svg>